<svg width="425" height="416" viewBox="0 0 425 416" fill="none" xmlns="http://www.w3.org/2000/svg">
<path d="M28.3645 192.767C28.3645 192.767 20.7721 259.197 74.8895 314.285C129.007 369.372 212.706 387.815 280.222 404.389C347.738 420.963 405.345 395.496 421.208 344.021C437.07 292.545 387.321 267.543 368.162 202.175C349.002 136.808 354.479 117.468 300.279 69.5474C246.079 21.6262 149.165 27.3559 90.5505 81.8951C31.9363 136.434 28.3645 192.767 28.3645 192.767Z" fill="#FFC5A3"/>
<path opacity="0.7" d="M28.3645 192.767C28.3645 192.767 20.7721 259.197 74.8895 314.285C129.007 369.372 212.706 387.815 280.222 404.389C347.738 420.963 405.345 395.496 421.208 344.021C437.07 292.545 387.321 267.543 368.162 202.175C349.002 136.808 354.479 117.468 300.279 69.5474C246.079 21.6262 149.165 27.3559 90.5505 81.8951C31.9363 136.434 28.3645 192.767 28.3645 192.767Z" fill="white"/>
<path d="M63.5682 215.855C63.5682 215.855 63.5682 215.023 63.6514 213.467C63.6514 212.676 63.7013 211.695 63.7346 210.53C63.7679 209.365 63.7928 208.034 63.9426 206.47C64.0924 204.906 64.1922 203.225 64.342 201.328C64.4917 199.431 64.8328 197.384 65.1074 195.155C65.8482 190.03 66.8451 184.946 68.0943 179.921C68.4104 178.498 68.8847 177.067 69.284 175.578L69.933 173.331L70.2575 172.183L70.6402 171.035L72.246 166.317C72.5039 165.485 72.82 164.712 73.1445 163.905C73.469 163.098 73.7852 162.241 74.1097 161.45C76.9496 154.277 80.3722 147.348 84.3432 140.733C94.0225 124.567 106.689 110.391 121.667 98.9587C139.862 85.1058 161.047 75.7031 183.526 71.5027L188.077 70.6707L192.703 70.08C195.79 69.614 198.935 69.4809 202.096 69.248C203.677 69.1065 205.274 69.1398 206.872 69.0815L209.268 69.0233C210.1 69.0233 210.874 68.9734 211.681 69.0233C214.901 69.1231 218.146 69.1065 221.407 69.431C228.023 69.9031 234.6 70.8231 241.092 72.1849C244.37 72.942 247.682 73.6492 250.943 74.6809C254.271 75.5129 257.458 76.7193 260.736 77.8092C274.033 82.6428 286.564 89.3679 297.943 97.7772C303.786 102.153 309.323 106.924 314.516 112.054C319.743 117.342 324.592 122.992 329.026 128.961L332.296 133.562L335.366 138.329C336.423 139.901 337.305 141.59 338.27 143.221L339.692 145.717L341.007 148.213L342.313 150.767C342.754 151.599 343.145 152.473 343.561 153.355L345.932 158.605C346.637 160.391 347.347 162.182 348.062 163.979L348.595 165.327L349.061 166.7L349.993 169.471L350.916 172.225L351.748 175.028L352.58 177.832L352.971 179.247L353.304 180.669C353.737 182.572 354.175 184.477 354.618 186.385C354.957 188.315 355.301 190.257 355.65 192.209C358.207 207.866 358.207 223.835 355.65 239.492C355.301 241.43 354.96 243.361 354.61 245.316C354.261 247.271 353.778 249.135 353.304 251.032L352.971 252.463C352.855 252.937 352.713 253.403 352.58 253.869L351.748 256.681L350.916 259.485L349.993 262.205L349.061 264.959L348.595 266.332L348.062 267.68L345.941 273.063L343.561 278.313L342.97 279.619L342.313 280.9L341.007 283.446L339.692 285.992L338.27 288.488C337.305 290.152 336.431 291.816 335.366 293.38C334.301 294.945 333.319 296.559 332.304 298.148L329.026 302.749C324.595 308.73 319.746 314.391 314.516 319.688C309.321 324.817 303.784 329.587 297.943 333.965C292.181 338.202 286.132 342.033 279.838 345.43C273.659 348.705 267.265 351.559 260.702 353.975C257.424 355.065 254.204 356.246 250.901 357.103C247.648 358.11 244.329 358.809 241.059 359.599C234.564 360.958 227.984 361.875 221.365 362.345C218.112 362.669 214.859 362.653 211.639 362.753C210.807 362.794 210.034 362.753 209.226 362.753L206.83 362.694C205.233 362.636 203.635 362.694 202.055 362.528C198.893 362.262 195.748 362.129 192.661 361.696L188.035 361.105L183.484 360.273C161.005 356.073 139.82 346.67 121.625 332.817C106.649 321.38 93.9834 307.201 84.3017 291.034C80.3382 284.42 76.9185 277.494 74.0764 270.326L73.1112 267.871C72.7868 267.039 72.4706 266.266 72.2127 265.45L70.6069 260.741C70.4821 260.35 70.349 259.967 70.2242 259.593C70.0994 259.219 69.9996 258.827 69.8914 258.445C69.6751 257.688 69.4671 256.931 69.2508 256.19C68.8514 254.709 68.3772 253.278 68.061 251.847C66.8119 246.825 65.815 241.743 65.0741 236.621C64.7996 234.392 64.5001 232.337 64.3087 230.448C64.1173 228.559 64.0258 226.837 63.9093 225.306C63.7928 223.775 63.7263 222.419 63.7013 221.246C63.6764 220.073 63.6431 219.099 63.6181 218.309C63.5682 216.737 63.5349 215.93 63.5349 215.93C63.5349 215.93 63.5349 216.762 63.5349 218.309C63.5349 219.099 63.5765 220.081 63.6015 221.246C63.6264 222.411 63.6431 223.742 63.7845 225.306C63.926 226.87 64.0258 228.559 64.1672 230.456C64.3087 232.353 64.6498 234.4 64.916 236.638C65.6669 241.745 66.6777 246.81 67.9445 251.814C68.2607 253.245 68.7266 254.676 69.1343 256.165C69.3423 256.906 69.5503 257.663 69.7666 258.42L70.0911 259.576C70.2242 259.951 70.349 260.333 70.4821 260.716L72.0546 265.409C72.3125 266.241 72.6287 267.023 72.9532 267.83C73.2776 268.637 73.5938 269.494 73.9183 270.326C76.7502 277.512 80.1644 284.454 84.1269 291.084C93.8026 307.296 106.478 321.516 121.475 332.984C139.7 346.886 160.924 356.331 183.451 360.564L188.01 361.396L192.645 361.995C195.74 362.461 198.901 362.595 202.071 362.827C203.652 362.969 205.249 362.936 206.855 363.002L209.26 363.069C210.092 363.069 210.866 363.11 211.673 363.069C214.901 362.961 218.162 362.977 221.424 362.661C228.059 362.192 234.655 361.275 241.167 359.915C244.495 359.15 247.773 358.443 251.043 357.419C254.371 356.587 257.591 355.381 260.869 354.283C274.211 349.432 286.782 342.678 298.192 334.232C304.056 329.843 309.615 325.062 314.832 319.921C320.074 314.605 324.936 308.928 329.384 302.932C330.482 301.401 331.572 299.862 332.712 298.323L335.79 293.539C336.847 291.966 337.729 290.269 338.702 288.63L340.133 286.134L341.448 283.579L342.754 281.025L343.337 279.802L343.936 278.496L346.315 273.229C347.022 271.432 347.738 269.635 348.445 267.83L348.978 266.482L349.443 265.101L350.384 262.339L351.34 259.585L352.172 256.764L353.004 253.952C353.138 253.478 353.279 253.012 353.395 252.538L353.728 251.107C354.169 249.193 354.56 247.279 355.043 245.366C355.525 243.452 355.733 241.497 356.083 239.542C358.652 223.838 358.652 207.821 356.083 192.118C355.742 190.171 355.392 188.241 355.043 186.294C354.693 184.347 354.211 182.467 353.728 180.561L353.404 179.13L353.004 177.716L352.172 174.895L351.34 172.083L350.409 169.321L349.468 166.559L349.002 165.178L348.47 163.83C347.763 162.024 347.047 160.227 346.34 158.43C345.633 156.633 344.751 154.919 343.961 153.172C343.578 152.282 343.129 151.425 342.704 150.576L341.39 148.022L340.075 145.467L338.652 142.971C337.679 141.307 336.797 139.643 335.732 138.063L332.662 133.287L329.334 128.669C324.889 122.677 320.026 117.005 314.782 111.697C309.564 106.555 304.004 101.772 298.142 97.3779C286.742 88.9571 274.188 82.2209 260.869 77.3766C257.591 76.2867 254.354 75.1052 251.051 74.24C247.781 73.2416 244.453 72.576 241.175 71.744C234.662 70.4051 228.066 69.5072 221.432 69.0566C218.17 68.7404 214.909 68.7571 211.681 68.6572C210.849 68.6572 210.067 68.6572 209.268 68.6572L206.855 68.7155C205.258 68.782 203.66 68.7155 202.071 68.8902C198.91 69.1564 195.748 69.2896 192.653 69.7222L188.019 70.3212L183.459 71.1532C160.93 75.3712 139.704 84.8118 121.484 98.7174C106.489 110.185 93.8139 124.402 84.1352 140.609C80.1684 147.252 76.7514 154.208 73.9183 161.409C73.5938 162.241 73.2776 163.073 72.9532 163.863C72.6287 164.653 72.3125 165.469 72.0629 166.284C71.5083 167.898 70.9758 169.473 70.4655 171.01C70.3324 171.393 70.2076 171.775 70.0828 172.158L69.7583 173.306C69.542 174.072 69.3257 174.82 69.1177 175.561C68.7183 177.059 68.2441 178.49 67.9279 179.912C66.6865 184.945 65.7034 190.038 64.9826 195.171C64.7164 197.401 64.4169 199.464 64.2338 201.353C64.0508 203.242 63.9676 204.964 63.8511 206.503C63.7346 208.042 63.6847 209.39 63.668 210.563C63.6514 211.736 63.6181 212.71 63.6015 213.5C63.5765 215.048 63.5682 215.855 63.5682 215.855Z" fill="#263238"/>
<path d="M126.542 252.529C123.464 252.696 121.151 249.118 121.75 246.09C122.349 243.061 125.012 240.815 127.865 239.633C130.719 238.452 133.831 238.094 136.818 237.329C141.268 236.162 145.434 234.101 149.061 231.272C152.689 228.443 155.702 224.904 157.917 220.872C159.504 217.796 160.808 214.583 161.811 211.27C166.012 193.574 171.795 168.273 173.251 158.413C176.928 132.963 183.418 105.007 219.793 107.611C219.793 107.611 243.979 112.163 253.256 129.51C261.418 144.76 256.709 190.753 257.79 223.883L249.861 228.659L248.63 228.734C247.713 232.124 246.234 235.335 244.254 238.235C237.015 248.561 227.156 256.856 216.473 263.562C194.841 277.115 169.049 284.511 143.665 281.965C138.307 281.425 132.849 280.418 128.19 277.805C123.531 275.193 119.637 270.609 118.93 265.275C118.222 259.942 121.359 253.977 126.542 252.529Z" fill="#263238"/>
<path d="M224.635 117.096L222.355 114.925L197.736 124.801C196.019 124.896 194.399 125.633 193.199 126.866C191.998 128.098 191.305 129.737 191.255 131.457L191.472 211.578C191.472 217.011 192.528 221.72 195.806 226.047L199.259 230.606C207.138 241.006 223.337 240.149 229.569 228.692C229.937 228.042 230.216 227.345 230.401 226.621C230.56 226.033 230.682 225.435 230.767 224.832C231.499 218.384 231.541 212.793 231.541 212.793C231.982 205.721 232.123 202.809 232.131 202.884C232.14 202.959 247.191 201.145 251.267 181.818C253.297 172.2 252.931 158.971 252.341 145.95C251.617 127.962 239.12 117.08 224.635 117.096Z" fill="#FFBF9D"/>
<path d="M219.593 159.17C219.567 159.822 219.287 160.438 218.813 160.886C218.339 161.333 217.708 161.578 217.056 161.566C216.734 161.581 216.412 161.53 216.111 161.417C215.809 161.304 215.533 161.132 215.3 160.909C215.067 160.687 214.881 160.42 214.754 160.124C214.626 159.828 214.56 159.509 214.56 159.187C214.584 158.534 214.863 157.916 215.337 157.466C215.812 157.017 216.444 156.771 217.097 156.782C217.42 156.769 217.741 156.821 218.043 156.935C218.345 157.048 218.62 157.222 218.854 157.445C219.087 157.668 219.272 157.936 219.399 158.232C219.526 158.529 219.592 158.848 219.593 159.17Z" fill="#263238"/>
<path d="M245.011 159.171C244.985 159.816 244.711 160.425 244.245 160.872C243.78 161.318 243.16 161.568 242.515 161.567C242.193 161.581 241.872 161.529 241.571 161.416C241.27 161.302 240.994 161.129 240.761 160.907C240.529 160.685 240.343 160.419 240.215 160.123C240.087 159.828 240.021 159.509 240.019 159.188C240.043 158.534 240.322 157.917 240.796 157.467C241.271 157.017 241.903 156.772 242.556 156.783C242.875 156.774 243.193 156.829 243.491 156.945C243.788 157.061 244.059 157.236 244.288 157.459C244.517 157.681 244.699 157.947 244.823 158.242C244.947 158.536 245.011 158.852 245.011 159.171Z" fill="#263238"/>
<path d="M249.828 151.125C249.504 151.441 247.682 149.944 244.994 149.811C242.307 149.678 240.26 150.934 240.002 150.584C239.869 150.435 240.21 149.861 241.1 149.278C242.305 148.53 243.712 148.172 245.127 148.255C246.528 148.319 247.872 148.829 248.963 149.711C249.737 150.385 249.986 150.992 249.828 151.125Z" fill="#263238"/>
<path d="M222.539 151.425C222.181 151.699 220.517 150.019 217.854 149.619C215.192 149.22 213.037 150.243 212.796 149.877C212.679 149.711 213.079 149.178 214.027 148.687C215.302 148.066 216.737 147.854 218.137 148.08C219.522 148.29 220.804 148.933 221.798 149.919C222.522 150.659 222.697 151.283 222.539 151.425Z" fill="#263238"/>
<path d="M231.932 170.985C231.932 170.827 233.596 170.627 236.341 170.419C237.032 170.378 237.689 170.278 237.831 169.812C237.921 169.107 237.796 168.39 237.473 167.757L235.701 162.424C233.255 154.836 231.541 148.613 231.823 148.513C232.106 148.413 234.361 154.487 236.815 162.075C237.398 163.947 237.964 165.727 238.479 167.433C238.869 168.286 238.945 169.249 238.696 170.153C238.584 170.39 238.42 170.598 238.215 170.761C238.01 170.924 237.77 171.038 237.514 171.093C237.129 171.179 236.735 171.215 236.341 171.202C233.629 171.21 231.932 171.135 231.932 170.985Z" fill="#263238"/>
<path d="M232.198 202.908C223 202.59 214.071 199.724 206.406 194.63C206.406 194.63 212.297 208.458 231.89 207.609L232.198 202.908Z" fill="#FF9A6C"/>
<path d="M230.467 177.408C229.988 176.739 229.347 176.203 228.603 175.851C227.859 175.498 227.037 175.342 226.216 175.395C225.62 175.417 225.035 175.56 224.496 175.815C223.957 176.069 223.475 176.43 223.079 176.876C222.697 177.306 222.455 177.843 222.388 178.414C222.321 178.986 222.432 179.564 222.705 180.071C223.112 180.576 223.66 180.948 224.28 181.139C224.899 181.331 225.562 181.332 226.183 181.144C227.478 180.76 228.683 180.121 229.727 179.264C230.049 179.065 230.331 178.809 230.559 178.507C230.666 178.363 230.728 178.19 230.737 178.011C230.746 177.832 230.701 177.654 230.609 177.5" fill="#FF9A6C"/>
<path d="M223.919 172.449C224.36 172.449 224.219 175.361 226.615 177.557C229.011 179.754 232.131 179.596 232.14 180.003C232.14 180.186 231.416 180.536 230.101 180.503C228.389 180.445 226.753 179.781 225.484 178.631C224.263 177.529 223.52 175.995 223.412 174.354C223.362 173.131 223.728 172.424 223.919 172.449Z" fill="#263238"/>
<path d="M225.109 140.925C224.735 141.607 222.131 140.85 218.953 140.75C215.774 140.65 213.129 141.116 212.796 140.4C212.663 140.059 213.203 139.452 214.335 138.903C215.826 138.253 217.445 137.951 219.069 138.02C220.694 138.09 222.282 138.528 223.712 139.302C224.785 139.934 225.276 140.608 225.109 140.925Z" fill="#263238"/>
<path d="M249.445 139.569C248.938 140.159 247.116 139.435 244.894 139.286C242.673 139.136 240.734 139.494 240.352 138.836C240.177 138.512 240.51 137.913 241.358 137.38C242.5 136.743 243.805 136.459 245.109 136.564C246.412 136.67 247.655 137.159 248.68 137.971C249.437 138.645 249.67 139.286 249.445 139.569Z" fill="#263238"/>
<path d="M191.779 165.677C191.779 165.677 205.549 169.962 213.345 135.966C216.016 124.318 226.79 114.925 226.79 114.925L222.422 113.61C222.422 113.61 195.257 121.265 194.8 121.606C194.342 121.947 187.944 135.658 187.944 135.658L191.779 165.677Z" fill="#263238"/>
<path d="M195.174 164.412C195.24 162.956 193.735 159.42 192.312 159.154C188.518 158.364 181.604 158.322 181.047 168.048C180.298 181.36 193.784 179.347 193.834 178.964C193.884 178.581 194.933 169.421 195.174 164.412Z" fill="#FFBF9D"/>
<path d="M190.057 173.706C190.007 173.656 189.816 173.856 189.416 174.014C188.853 174.215 188.233 174.191 187.686 173.947C186.313 173.356 185.256 171.06 185.331 168.664C185.359 167.523 185.643 166.402 186.163 165.386C186.313 164.981 186.558 164.618 186.879 164.328C187.199 164.039 187.584 163.831 188.002 163.722C188.273 163.667 188.554 163.708 188.797 163.839C189.04 163.97 189.23 164.181 189.333 164.437C189.491 164.82 189.392 165.078 189.458 165.103C189.525 165.128 189.758 164.895 189.683 164.346C189.622 164.023 189.455 163.73 189.208 163.514C188.856 163.219 188.402 163.073 187.944 163.106C187.399 163.188 186.884 163.408 186.447 163.744C186.01 164.08 185.666 164.522 185.448 165.028C184.815 166.144 184.467 167.398 184.433 168.681C184.366 171.36 185.598 173.947 187.486 174.613C187.837 174.736 188.212 174.779 188.582 174.738C188.952 174.698 189.308 174.576 189.624 174.38C190.016 174.022 190.107 173.731 190.057 173.706Z" fill="#FF9A6C"/>
<path d="M180.556 214.607C180.759 213.068 180.856 211.517 180.847 209.964C180.787 205.73 180.356 201.51 179.557 197.351C179.083 194.714 178.567 191.827 178.01 188.732C177.407 185.431 177.009 182.097 176.82 178.748C176.595 175.06 176.875 171.36 177.652 167.749C178.085 165.85 178.713 164.002 179.524 162.232C180.376 160.419 181.431 158.708 182.669 157.132C185.165 154.062 187.952 151.24 190.989 148.704C193.901 146.208 196.688 143.712 199.168 141.174C203.584 136.703 207.583 131.838 211.115 126.639C213.5 123.144 215.662 119.5 217.588 115.732C218.27 114.401 218.77 113.352 219.094 112.629C219.252 112.279 219.377 112.013 219.46 111.797C219.508 111.706 219.547 111.612 219.577 111.514C219.519 111.598 219.469 111.687 219.427 111.78C219.327 111.969 219.194 112.246 219.028 112.612C218.686 113.319 218.196 114.359 217.463 115.682C215.491 119.414 213.299 123.026 210.899 126.498C207.349 131.659 203.342 136.49 198.926 140.933C196.43 143.429 193.668 145.925 190.756 148.421C187.681 150.964 184.861 153.801 182.336 156.891C181.079 158.488 180.01 160.225 179.15 162.066C178.328 163.859 177.695 165.733 177.261 167.657C176.494 171.301 176.228 175.032 176.471 178.748C176.677 182.098 177.088 185.432 177.702 188.732C178.276 191.827 178.809 194.714 179.291 197.343C180.113 201.486 180.583 205.692 180.697 209.914C180.697 211.412 180.697 212.577 180.606 213.359L180.548 214.257C180.535 214.374 180.538 214.491 180.556 214.607Z" fill="#43525A"/>
<path d="M176.279 215.863C176.487 214.325 176.585 212.773 176.57 211.221C176.508 206.984 176.074 202.76 175.272 198.599C174.798 195.962 174.282 193.075 173.725 189.98C173.125 186.679 172.728 183.345 172.535 179.996C172.31 176.309 172.59 172.608 173.367 168.997C173.8 167.099 174.428 165.25 175.239 163.48C176.091 161.667 177.146 159.956 178.384 158.38C180.896 155.31 183.696 152.488 186.746 149.952C189.658 147.456 192.445 144.96 194.924 142.423C199.342 137.953 203.342 133.087 206.872 127.887C209.257 124.392 211.419 120.748 213.345 116.98C214.027 115.649 214.526 114.6 214.851 113.877L215.225 113.045C215.269 112.953 215.305 112.859 215.333 112.762L215.183 113.028C215.092 113.228 214.959 113.486 214.784 113.86C214.443 114.575 213.952 115.607 213.22 116.93C211.248 120.662 209.056 124.274 206.655 127.746C203.108 132.906 199.104 137.738 194.691 142.181C192.195 144.677 189.433 147.173 186.513 149.669C183.438 152.212 180.618 155.049 178.093 158.139C176.839 159.738 175.77 161.474 174.906 163.314C174.084 165.107 173.451 166.981 173.018 168.905C172.255 172.549 171.989 176.28 172.227 179.996C172.434 183.346 172.845 186.68 173.459 189.98C174.033 193.075 174.565 195.962 175.048 198.591C175.87 202.737 176.34 206.945 176.454 211.171C176.454 212.66 176.454 213.825 176.371 214.607C176.371 214.99 176.321 215.289 176.312 215.505C176.284 215.622 176.273 215.743 176.279 215.863Z" fill="#43525A"/>
<path d="M271.36 235.007C277.093 238.668 283.499 244.6 286.536 250.69C292.027 261.722 330.54 291.358 332.046 298.538C335.507 329.198 301.595 328.798 287.867 312.399C280.762 303.913 265.104 272.114 265.104 272.114L271.36 235.007Z" fill="#43525A"/>
<path d="M314.99 282.415C314.99 282.415 289.531 241.431 284.539 235.698C276.893 226.929 263.606 223.418 263.606 223.418L260.744 277.157C260.569 276.416 287.052 310.262 287.052 310.262C287.052 310.262 311.787 291.883 314.99 282.415Z" fill="#43525A"/>
<path d="M299.174 240.948L326.855 293.805C328.204 296.335 328.561 299.277 327.856 302.055C327.152 304.834 325.436 307.25 323.044 308.831L322.928 308.906C312.311 315.62 298.242 309.064 295.904 296.726L286.161 247.33L299.174 240.948Z" fill="#FFBF9D"/>
<path d="M272.242 194.955L290.005 237.37L285.962 239.068L268.739 196.178L272.242 194.955Z" fill="#43525A"/>
<path d="M243.613 177.878C242.651 166.057 250.741 155.753 261.683 154.863C272.624 153.974 282.273 162.835 283.235 174.655C284.196 186.476 276.106 196.78 265.165 197.67C254.223 198.56 244.574 189.699 243.613 177.878Z" fill="#FFBF9D"/>
<path d="M243.546 176.277C243.674 175.836 243.741 175.38 243.746 174.921C243.746 174.696 243.746 174.447 243.804 174.18C243.863 173.914 243.896 173.615 243.954 173.29C244.051 172.555 244.195 171.827 244.387 171.11C244.858 169.165 245.597 167.294 246.583 165.552C247.837 163.297 249.508 161.301 251.509 159.67C253.854 157.747 256.637 156.433 259.612 155.843C260.415 155.694 261.226 155.599 262.042 155.56C262.458 155.56 262.874 155.502 263.298 155.51L264.571 155.593C264.779 155.593 264.995 155.593 265.212 155.635L265.852 155.743C266.277 155.826 266.684 155.885 267.142 155.976C268.014 156.194 268.87 156.472 269.704 156.808C270.564 157.144 271.398 157.542 272.2 157.998C272.608 158.239 273.032 158.514 273.399 158.772C273.808 159.018 274.198 159.296 274.563 159.604C275.341 160.218 276.075 160.885 276.76 161.6C277.446 162.355 278.08 163.156 278.657 163.997C279.874 165.737 280.82 167.654 281.461 169.679C282.111 171.792 282.47 173.984 282.526 176.194C282.528 178.396 282.226 180.589 281.627 182.708C281.04 184.73 280.145 186.65 278.973 188.399C277.899 190.078 276.555 191.568 274.996 192.809C274.634 193.11 274.253 193.388 273.856 193.641C273.457 193.899 273.074 194.182 272.675 194.415C271.871 194.872 271.037 195.275 270.179 195.621C269.35 195.956 268.499 196.234 267.633 196.453C267.208 196.553 266.801 196.611 266.343 196.686L265.711 196.802C265.495 196.802 265.278 196.802 265.07 196.852L263.797 196.935C263.373 196.935 262.965 196.935 262.541 196.886C261.723 196.853 260.908 196.762 260.103 196.611C257.104 196.026 254.291 194.722 251.908 192.809C249.864 191.186 248.14 189.197 246.824 186.943C245.794 185.207 245.007 183.336 244.487 181.385C244.274 180.674 244.11 179.948 243.996 179.214C243.937 178.889 243.871 178.598 243.829 178.324L243.746 177.583C243.733 177.122 243.654 176.666 243.513 176.227C243.413 176.68 243.387 177.147 243.438 177.608C243.438 177.833 243.438 178.091 243.438 178.365C243.438 178.64 243.496 178.948 243.53 179.28C243.603 180.042 243.729 180.798 243.904 181.543C244.336 183.599 245.071 185.578 246.084 187.417C247.385 189.837 249.139 191.984 251.251 193.741C253.741 195.863 256.72 197.333 259.92 198.017C260.776 198.197 261.643 198.314 262.516 198.367C262.957 198.367 263.406 198.433 263.856 198.433L265.22 198.367C265.445 198.367 265.678 198.367 265.902 198.317L266.584 198.208C267.042 198.134 267.508 198.075 267.974 197.975C269.868 197.52 271.691 196.807 273.39 195.854C273.823 195.604 274.222 195.313 274.663 195.022C275.099 194.746 275.514 194.437 275.903 194.098C277.597 192.779 279.056 191.184 280.221 189.381C281.493 187.496 282.465 185.424 283.1 183.241C284.471 178.642 284.407 173.734 282.917 169.172C282.223 166.987 281.199 164.922 279.88 163.048C279.249 162.147 278.56 161.288 277.816 160.477C277.07 159.714 276.275 159 275.437 158.339C275.038 158.007 274.619 157.702 274.181 157.424C273.748 157.149 273.349 156.858 272.883 156.592C272.01 156.109 271.103 155.689 270.17 155.335C269.271 154.992 268.348 154.714 267.408 154.503C266.951 154.404 266.485 154.354 266.019 154.271L265.336 154.171C265.107 154.144 264.877 154.13 264.646 154.129L263.29 154.062C262.832 154.062 262.391 154.112 261.95 154.129C261.08 154.184 260.215 154.303 259.363 154.487C256.212 155.166 253.283 156.625 250.843 158.73C247.189 161.897 244.709 166.202 243.804 170.952C243.648 171.698 243.545 172.454 243.496 173.215C243.496 173.548 243.43 173.847 243.422 174.13C243.413 174.413 243.422 174.663 243.422 174.887C243.389 175.354 243.431 175.823 243.546 176.277Z" fill="#263238"/>
<path d="M257.308 179.621C257.26 180.723 257.636 181.801 258.359 182.633C259.082 183.466 260.096 183.99 261.193 184.098C261.724 184.13 262.255 184.055 262.755 183.876C263.256 183.697 263.714 183.418 264.103 183.056C264.493 182.694 264.804 182.257 265.019 181.771C265.234 181.285 265.347 180.76 265.353 180.229C265.399 179.128 265.022 178.051 264.3 177.219C263.577 176.387 262.564 175.862 261.468 175.753C260.937 175.72 260.406 175.795 259.906 175.974C259.405 176.153 258.947 176.432 258.558 176.794C258.168 177.156 257.857 177.593 257.642 178.079C257.427 178.565 257.314 179.09 257.308 179.621Z" fill="#263238"/>
<path d="M255.91 168.523C256.409 169.097 259.479 166.7 263.839 166.792C268.199 166.884 271.377 169.288 271.851 168.714C272.084 168.464 271.568 167.424 270.187 166.309C268.351 164.882 266.098 164.093 263.772 164.063C261.494 164.024 259.27 164.76 257.466 166.151C256.118 167.233 255.66 168.256 255.91 168.523Z" fill="#263238"/>
<path d="M274.239 190.021C274.339 190.187 275.703 189.505 277.351 187.633C279.515 185.082 280.909 181.969 281.369 178.656C281.846 175.282 281.386 171.842 280.038 168.713C278.99 166.359 277.892 165.236 277.742 165.385C277.592 165.535 278.308 166.858 279.031 169.163C279.985 172.145 280.269 175.301 279.863 178.406C279.414 181.454 278.276 184.359 276.535 186.901C275.179 188.814 274.089 189.813 274.239 190.021Z" fill="white"/>
<path d="M268.906 193.349C268.934 193.478 269.001 193.595 269.097 193.684C269.194 193.773 269.316 193.831 269.447 193.848C269.85 193.926 270.268 193.852 270.62 193.64C270.992 193.444 271.285 193.127 271.452 192.742C271.516 192.623 271.545 192.489 271.534 192.354C271.524 192.22 271.475 192.092 271.393 191.984C271.061 191.685 270.462 191.868 269.904 192.159C269.347 192.45 268.872 192.891 268.906 193.349Z" fill="white"/>
<path d="M296.087 234.342C296.087 234.342 288.1 213.176 286.935 212.078C285.771 210.979 273.981 201.078 273.981 201.078C272.749 200.879 271.486 201.053 270.354 201.578C269.197 202.252 266.385 206.694 265.262 208.517C265.111 208.763 265.011 209.037 264.966 209.323C264.922 209.608 264.935 209.9 265.004 210.181L266.285 214.341C266.285 214.341 264.746 216.762 265.112 218.501C265.369 219.644 265.796 220.744 266.377 221.762C265.592 223.277 265.402 225.031 265.844 226.679C266.443 228.224 267.601 229.486 269.089 230.215C269.089 230.215 270.004 234.625 270.121 235.457C270.237 236.289 274.58 238.269 275.029 238.144C275.479 238.019 278.64 236.671 278.64 236.671C278.64 236.671 280.105 243.777 281.935 245.382C283.158 246.377 284.611 247.047 286.162 247.329L288.425 258.653L302.46 247.937L296.087 234.342Z" fill="#FFBF9D"/>
<path d="M276.735 227.969C275.435 228.281 274.159 228.684 272.916 229.175C271.639 229.569 270.384 230.03 269.155 230.556C270.477 230.343 271.772 229.986 273.016 229.491C274.299 229.096 275.543 228.587 276.735 227.969Z" fill="#FF9A6C"/>
<path d="M276.627 219.133C276.096 219.146 275.569 219.219 275.054 219.349C274.089 219.541 272.766 219.84 271.327 220.231C269.888 220.622 268.59 221.063 267.666 221.388C267.156 221.54 266.665 221.75 266.202 222.012C266.722 221.922 267.235 221.789 267.733 221.612C268.673 221.338 269.971 220.955 271.41 220.556C272.849 220.156 274.156 219.823 275.096 219.582C275.62 219.485 276.133 219.334 276.627 219.133Z" fill="#FF9A6C"/>
<path d="M278.149 212.253C277.571 212.169 276.984 212.156 276.402 212.211C275.006 212.265 273.616 212.42 272.242 212.677C270.86 212.93 269.498 213.281 268.165 213.725C267.6 213.882 267.055 214.105 266.543 214.391C267.108 214.287 267.664 214.139 268.207 213.95C269.239 213.667 270.703 213.301 272.284 213.001C273.865 212.702 275.354 212.544 276.444 212.444C277.016 212.421 277.586 212.357 278.149 212.253Z" fill="#FF9A6C"/>
<path d="M269.363 213.342C269.742 212.354 269.86 211.286 269.705 210.239C270.175 210.287 270.65 210.229 271.095 210.069C271.54 209.909 271.943 209.652 272.275 209.315C273.016 210.247 274.006 211.537 274.771 212.469L269.363 213.342Z" fill="#43525A"/>
<path d="M269.156 231.097L265.045 279.811C265.045 279.811 257.491 328.657 258.048 332.11C258.606 335.563 265.378 352.403 265.378 352.403C236.142 364.225 192.295 368.843 153.258 351.313L163.117 328.641L152.135 227.212L191.863 213.642C191.863 213.642 194.259 228.118 213.295 226.513C232.331 224.907 231.99 214.399 231.99 214.399L265.761 224.058L269.156 231.097Z" fill="#43525A"/>
<path d="M118.139 330.205C118.139 330.205 142.425 227.969 153.158 227.137L161.212 304.679L146.019 347.943C135.653 342.56 126.135 336.736 118.139 330.205Z" fill="#43525A"/>
<path d="M154.814 246.655C154.689 246.655 155.754 258.994 157.193 274.186C158.632 289.378 159.88 301.692 160.005 301.684C160.13 301.675 159.057 289.345 157.626 274.145C156.195 258.944 154.93 246.639 154.814 246.655Z" fill="#263238"/>
<path d="M268.631 245.773C268.578 245.949 268.548 246.131 268.54 246.314C268.49 246.714 268.423 247.229 268.348 247.878C268.199 249.284 267.982 251.206 267.724 253.619C267.209 258.478 266.518 265.184 265.669 272.572C264.821 279.96 263.939 286.658 263.24 291.484C262.882 293.863 262.599 295.802 262.408 297.199L262.183 298.755C262.144 298.936 262.128 299.12 262.133 299.304C262.195 299.132 262.24 298.953 262.267 298.772C262.35 298.372 262.45 297.865 262.574 297.233C262.832 295.893 263.165 293.946 263.556 291.533C264.338 286.708 265.22 280.027 266.11 272.622C267.001 265.217 267.608 258.478 268.049 253.652C268.249 251.256 268.415 249.301 268.531 247.887C268.573 247.246 268.615 246.722 268.64 246.323C268.661 246.14 268.658 245.955 268.631 245.773Z" fill="#263238"/>
<path d="M236.375 216.853L232.489 210.646L212.039 227.17L192.046 207.659L185.672 215.721L209.875 241.655L236.375 216.853Z" fill="#43525A"/>
<path d="M212.713 228.609C212.746 228.946 212.804 229.28 212.887 229.608C213.029 230.248 213.245 231.188 213.569 232.353C214.471 235.536 215.634 238.639 217.047 241.63L217.189 241.938L217.388 241.663C219.052 239.417 220.816 236.946 222.738 234.358C226.482 229.308 229.952 224.799 232.481 221.537L235.476 217.685L236.308 216.628C236.491 216.379 236.583 216.246 236.566 216.237C236.446 216.336 236.337 216.448 236.241 216.57L235.409 217.577C234.669 218.459 233.604 219.748 232.306 221.354C229.719 224.557 226.208 229.05 222.455 234.1C220.533 236.688 218.736 239.167 217.13 241.43H217.472C216.048 238.472 214.844 235.413 213.869 232.278C213.511 231.122 213.253 230.198 213.037 229.566C212.955 229.239 212.846 228.919 212.713 228.609Z" fill="#263238"/>
<path d="M186.654 216.811C186.7 216.94 186.762 217.063 186.837 217.177L187.42 218.184C187.944 219.016 188.718 220.289 189.741 221.786C192.396 225.684 195.333 229.382 198.527 232.852C200.649 235.148 202.762 237.22 204.675 238.975L204.817 239.1L204.95 238.967C206.859 237.007 208.451 234.762 209.667 232.311C210.1 231.413 210.4 230.647 210.583 230.181C210.686 229.925 210.767 229.661 210.824 229.391C210.679 229.624 210.559 229.872 210.466 230.131C210.25 230.622 209.917 231.329 209.459 232.203C208.192 234.601 206.577 236.799 204.667 238.726H204.942C203.045 236.962 200.956 234.882 198.851 232.594C195.672 229.136 192.712 225.482 189.991 221.653C188.942 220.181 188.127 218.974 187.561 218.134L186.921 217.152C186.754 216.911 186.671 216.803 186.654 216.811Z" fill="#263238"/>
<path d="M211.789 360.498C211.906 360.498 212.005 331.661 212.005 296.101C212.005 260.541 211.906 231.704 211.789 231.704C211.673 231.704 211.573 260.533 211.573 296.101C211.573 331.669 211.673 360.498 211.789 360.498Z" fill="#263238"/>
<path d="M201.614 320.853C201.614 320.97 209.934 319.189 220.117 316.834C230.301 314.48 238.554 312.516 238.521 312.4C238.488 312.283 230.201 314.064 220.017 316.41C209.834 318.756 201.589 320.737 201.614 320.853Z" fill="#263238"/>
<path d="M296.603 312.458C296.678 312.408 295.771 311.401 294.806 309.537C294.226 308.445 293.75 307.3 293.383 306.118C292.477 303.22 292.226 300.156 292.651 297.149C292.814 295.924 293.092 294.718 293.483 293.546C294.157 291.541 294.856 290.41 294.781 290.368C294.574 290.601 294.4 290.861 294.265 291.142C294.072 291.45 293.902 291.773 293.758 292.107C293.543 292.542 293.354 292.989 293.192 293.447C292.749 294.625 292.429 295.846 292.235 297.091C292.013 298.619 291.958 300.168 292.069 301.708C292.213 303.248 292.52 304.768 292.984 306.243C293.378 307.44 293.894 308.595 294.523 309.687C294.76 310.108 295.019 310.516 295.297 310.91C295.498 311.201 295.717 311.479 295.954 311.742C296.362 312.233 296.578 312.483 296.603 312.458Z" fill="#263238"/>
<path d="M316.385 193.024C315.976 200.888 317.962 208.692 322.08 215.405C326.197 222.118 332.253 227.425 339.448 230.626C346.644 233.827 354.64 234.772 362.384 233.335C370.127 231.898 377.252 228.148 382.82 222.578C388.388 217.009 392.137 209.883 393.572 202.139C395.007 194.396 394.061 186.399 390.858 179.205C387.656 172.01 382.347 165.955 375.633 161.839C368.919 157.723 361.115 155.74 353.251 156.15C343.634 156.651 334.544 160.697 327.736 167.507C320.928 174.317 316.884 183.407 316.385 193.024Z" fill="white"/>
<path d="M394.75 195C394.75 216.398 377.18 233.75 355.5 233.75C333.82 233.75 316.25 216.398 316.25 195C316.25 173.602 333.82 156.25 355.5 156.25C377.18 156.25 394.75 173.602 394.75 195Z" stroke="#263238" strokeWidth="0.5"/>
<path d="M374.333 182.781H339.265V212.683H374.333V182.781Z" fill="#E0E0E0"/>
<path d="M374.333 212.684C374.333 212.684 374.333 212.485 374.333 212.118C374.333 211.752 374.333 211.195 374.333 210.513C374.333 209.09 374.333 207.035 374.283 204.431C374.283 199.198 374.234 191.751 374.192 182.799L374.375 182.982H339.314C339.38 182.906 339.449 182.834 339.522 182.766V190.761C339.522 193.385 339.522 195.953 339.522 198.465C339.522 203.457 339.522 208.241 339.522 212.659L339.331 212.468L364.641 212.568L371.821 212.618H373.726H374.4H374.25H373.776H371.904L364.765 212.668L339.331 212.759H339.14V212.568C339.14 208.15 339.14 203.416 339.14 198.374C339.14 195.861 339.14 193.293 339.14 190.67V182.79C338.948 182.982 339.406 182.524 339.364 182.574H374.425H374.608V182.757C374.566 191.776 374.533 199.264 374.516 204.522C374.516 207.11 374.516 209.148 374.466 210.563C374.466 211.234 374.466 211.758 374.466 212.135C374.35 212.518 374.333 212.684 374.333 212.684Z" fill="#263238"/>
<path d="M342.892 193.024H341.336C340.215 193.024 339.14 192.579 338.348 191.786C337.555 190.993 337.11 189.918 337.11 188.797V181.858H347.094V188.797C347.094 189.914 346.652 190.985 345.865 191.777C345.078 192.569 344.009 193.017 342.892 193.024Z" fill="#F05522"/>
<path d="M342.892 193.023C342.892 192.982 343.258 193.023 343.882 192.832C344.764 192.592 345.546 192.076 346.112 191.359C346.497 190.849 346.759 190.257 346.877 189.629C346.953 188.871 346.972 188.109 346.936 187.349C346.936 185.685 346.936 183.863 346.936 181.899L347.144 182.107H337.16L337.368 181.899C337.368 184.063 337.368 186.059 337.368 187.923C337.368 188.372 337.368 188.83 337.368 189.229C337.408 189.629 337.503 190.021 337.651 190.394C337.923 191.05 338.361 191.624 338.924 192.058C339.752 192.692 340.777 193.013 341.819 192.965C342.2 192.958 342.582 192.983 342.959 193.04C342.582 193.097 342.2 193.122 341.819 193.115C340.731 193.221 339.642 192.925 338.757 192.283C338.14 191.824 337.654 191.21 337.351 190.502C337.182 190.102 337.072 189.678 337.027 189.246C336.985 188.797 337.027 188.364 337.027 187.906C337.027 186.068 337.027 184.046 337.027 181.883V181.675H347.46V181.883C347.46 183.846 347.46 185.677 347.46 187.332C347.486 188.113 347.453 188.895 347.36 189.67C347.216 190.341 346.917 190.968 346.486 191.501C345.883 192.263 345.033 192.79 344.082 192.99C343.833 193.042 343.579 193.07 343.325 193.073L342.892 193.023Z" fill="#263238"/>
<path d="M352.826 193.024H351.262C350.142 193.022 349.068 192.576 348.276 191.783C347.484 190.991 347.038 189.918 347.036 188.797V181.858H357.02V188.797C357.018 189.912 356.576 190.981 355.791 191.772C355.006 192.563 353.941 193.013 352.826 193.024Z" fill="#F05522"/>
<path d="M352.826 193.024C352.826 192.982 353.184 193.024 353.808 192.833C354.699 192.586 355.485 192.054 356.046 191.318C356.43 190.806 356.694 190.215 356.82 189.588C356.891 188.83 356.911 188.068 356.878 187.308C356.878 185.644 356.878 183.822 356.878 181.858L357.086 182.066H347.102L347.318 181.858C347.318 184.022 347.318 186.018 347.318 187.882C347.318 188.331 347.318 188.789 347.318 189.188C347.356 189.587 347.448 189.979 347.593 190.353C347.871 191.006 348.309 191.578 348.866 192.017C349.695 192.649 350.72 192.97 351.761 192.924C352.145 192.918 352.529 192.943 352.909 192.999C352.529 193.055 352.145 193.08 351.761 193.074C350.674 193.178 349.585 192.882 348.7 192.242C348.082 191.783 347.597 191.168 347.293 190.461C347.132 190.058 347.023 189.636 346.969 189.205C346.969 188.756 346.969 188.323 346.969 187.865C346.969 186.027 346.969 184.005 346.969 181.842V181.634H357.261V181.842C357.261 183.805 357.261 185.636 357.261 187.291C357.289 188.072 357.252 188.854 357.153 189.629C357.022 190.296 356.737 190.923 356.321 191.46C355.716 192.223 354.862 192.75 353.908 192.949C353.659 193.002 353.405 193.03 353.151 193.032C353.043 193.047 352.933 193.044 352.826 193.024Z" fill="#263238"/>
<path d="M362.752 193.024H361.196C360.075 193.024 359 192.579 358.208 191.786C357.415 190.993 356.97 189.918 356.97 188.797V181.858H366.954V188.797C366.954 189.914 366.512 190.985 365.725 191.777C364.937 192.569 363.869 193.017 362.752 193.024Z" fill="#F05522"/>
<path d="M362.752 193.024C362.752 192.982 363.11 193.024 363.742 192.832C364.632 192.583 365.418 192.052 365.98 191.318C366.365 190.808 366.627 190.216 366.746 189.588C366.821 188.83 366.84 188.068 366.804 187.308C366.804 185.644 366.804 183.822 366.804 181.858L367.012 182.066H357.028L357.236 181.858C357.236 184.022 357.236 186.018 357.236 187.882C357.236 188.331 357.236 188.789 357.236 189.188C357.273 189.587 357.365 189.979 357.51 190.353C357.788 191.008 358.229 191.581 358.792 192.017C359.617 192.65 360.64 192.971 361.679 192.924C362.038 192.929 362.397 192.963 362.752 193.024C362.372 193.081 361.988 193.106 361.604 193.099C360.677 193.192 359.746 192.988 358.942 192.517C358.139 192.046 357.507 191.332 357.136 190.478C356.973 190.076 356.867 189.653 356.82 189.222C356.778 188.772 356.82 188.34 356.82 187.882C356.82 186.043 356.82 184.022 356.82 181.858V181.65H367.253V181.858C367.253 183.822 367.253 185.652 367.253 187.308C367.279 188.089 367.246 188.87 367.153 189.646C367.01 190.316 366.71 190.943 366.28 191.476C365.677 192.238 364.826 192.765 363.875 192.966C363.626 193.018 363.372 193.046 363.118 193.049L362.752 193.024Z" fill="#263238"/>
<path d="M372.686 193.024H371.122C370.002 193.022 368.928 192.576 368.136 191.783C367.344 190.991 366.898 189.918 366.896 188.797V181.858H376.88V188.797C376.877 189.912 376.436 190.981 375.651 191.772C374.866 192.563 373.801 193.013 372.686 193.024Z" fill="#F05522"/>
<path d="M372.686 193.024C372.686 192.982 373.044 193.024 373.668 192.833C374.425 192.63 375.109 192.218 375.641 191.644C376.174 191.07 376.534 190.357 376.68 189.588C376.752 188.83 376.769 188.068 376.73 187.308C376.73 185.644 376.73 183.822 376.73 181.858L376.938 182.066H366.912L367.128 181.858C367.128 184.022 367.128 186.018 367.128 187.882C367.128 188.331 367.128 188.789 367.128 189.188C367.172 189.587 367.268 189.979 367.411 190.353C367.689 191.006 368.127 191.578 368.684 192.017C369.513 192.65 370.538 192.971 371.58 192.924C371.964 192.918 372.348 192.943 372.728 192.999C372.348 193.055 371.964 193.08 371.58 193.074C370.492 193.178 369.403 192.882 368.518 192.242C367.9 191.783 367.415 191.168 367.112 190.461C366.946 190.059 366.837 189.637 366.787 189.205C366.787 188.756 366.787 188.323 366.787 187.865C366.787 186.027 366.787 184.005 366.787 181.842V181.634H377.221V181.842C377.221 183.805 377.221 185.636 377.221 187.291C377.244 188.072 377.208 188.854 377.112 189.629C376.973 190.301 376.673 190.929 376.239 191.46C375.636 192.222 374.785 192.749 373.834 192.949C373.585 193.002 373.332 193.03 373.077 193.032C372.948 193.055 372.815 193.052 372.686 193.024Z" fill="#263238"/>
<path d="M370.099 196.817H360.314V212.692H370.099V196.817Z" fill="white"/>
<path d="M370.099 196.818C370.138 197.191 370.155 197.566 370.149 197.941C370.149 198.773 370.149 199.838 370.207 201.194C370.207 204.064 370.265 208.041 370.307 212.684V212.884H370.099H360.323C360.364 212.934 359.907 212.476 360.098 212.667V211.561C360.098 211.195 360.098 210.82 360.098 210.454V208.274C360.098 206.835 360.098 205.446 360.098 204.114C360.098 201.444 360.098 198.989 360.098 196.826V196.651H360.273L367.461 196.743H369.4C369.617 196.737 369.834 196.75 370.049 196.784C369.81 196.798 369.572 196.798 369.333 196.784L367.353 196.826L360.273 196.918L360.439 196.751C360.439 198.914 360.439 201.369 360.439 204.04C360.439 205.379 360.439 206.768 360.439 208.2V210.496C360.439 210.862 360.439 211.236 360.439 211.602V212.709L360.223 212.493H369.999L369.799 212.692C369.841 208.1 369.874 204.173 369.899 201.327C369.899 199.963 369.941 198.831 369.957 197.999C369.957 197.65 369.957 197.359 369.957 197.109C369.957 196.859 370.099 196.826 370.099 196.818Z" fill="#263238"/>
<path d="M353.509 196.11H344.748V206.901H353.509V196.11Z" fill="white"/>
<path d="M353.509 206.901C353.472 206.625 353.455 206.347 353.459 206.069C353.459 205.495 353.459 204.746 353.409 203.839C353.409 201.942 353.325 199.272 353.309 196.102L353.5 196.293H344.748L344.964 196.077V197.549C344.964 198.04 344.964 198.523 344.964 199.005V201.801C344.964 203.615 344.964 205.312 344.964 206.86L344.789 206.676L351.087 206.776H352.885C353.107 206.775 353.329 206.788 353.55 206.818C353.354 206.837 353.156 206.837 352.959 206.818L351.204 206.868C349.681 206.868 347.468 206.934 344.789 206.959H344.606V206.776C344.606 205.229 344.606 203.532 344.606 201.718C344.606 200.811 344.606 199.879 344.606 198.922V195.994C344.406 196.185 344.864 195.727 344.822 195.777H353.575H353.775V195.969C353.775 199.222 353.708 201.942 353.675 203.831C353.675 204.721 353.675 205.495 353.625 206.019C353.606 206.315 353.567 206.61 353.509 206.901Z" fill="#263238"/>
<path d="M368.734 202.583H367.278V206.909H368.734V202.583Z" fill="#E0E0E0"/>
<path d="M122.762 139.711C144.104 137.031 159.231 117.556 156.55 96.215C153.869 74.8735 134.395 59.7461 113.054 62.427C91.7121 65.1079 76.5847 84.582 79.2656 105.923C81.9465 127.265 101.421 142.392 122.762 139.711Z" fill="white"/>
<path d="M157.75 101C157.75 122.398 140.18 139.75 118.5 139.75C96.8198 139.75 79.25 122.398 79.25 101C79.25 79.602 96.8198 62.25 118.5 62.25C140.18 62.25 157.75 79.602 157.75 101Z" stroke="#263238" strokeWidth="0.5"/>
<path d="M120.64 102.776C121.928 102.207 123.021 101.274 123.785 100.091C124.549 98.9084 124.951 97.5283 124.941 96.1203C125.001 95.1961 124.872 94.2694 124.56 93.3972C124.249 92.5251 123.762 91.7258 123.13 91.0487C122.498 90.3716 121.734 89.831 120.886 89.46C120.037 89.0891 119.122 88.8956 118.196 88.8917C117.27 88.8877 116.352 89.0732 115.501 89.4369C114.649 89.8005 113.881 90.3346 113.243 91.0063C112.605 91.6779 112.112 92.4729 111.793 93.3424C111.474 94.2118 111.336 95.1374 111.388 96.062C111.364 97.4869 111.76 98.8873 112.529 100.088C113.297 101.288 114.402 102.235 115.706 102.81C105.281 104.382 105.722 115.714 105.722 115.714L130.383 115.83C130.383 115.83 130.948 104.332 120.64 102.776Z" fill="#F05522"/>
<path d="M135.907 95.0807C136.714 94.7264 137.399 94.1436 137.878 93.4043C138.357 92.665 138.609 91.8016 138.603 90.9207C138.639 90.3411 138.556 89.7602 138.359 89.2139C138.163 88.6676 137.856 88.1673 137.458 87.7441C137.061 87.3208 136.581 86.9835 136.048 86.7529C135.515 86.5223 134.94 86.4033 134.36 86.4033C133.779 86.4033 133.204 86.5223 132.671 86.7529C132.138 86.9835 131.658 87.3208 131.261 87.7441C130.863 88.1673 130.556 88.6676 130.36 89.2139C130.163 89.7602 130.08 90.3411 130.116 90.9207C130.098 91.8126 130.346 92.6898 130.827 93.4408C131.309 94.1919 132.002 94.7829 132.82 95.1389C126.289 96.129 126.58 103.226 126.58 103.226L142.031 103.293C142.031 103.293 142.38 96.0624 135.907 95.0807Z" fill="#F05522"/>
<path d="M103.11 95.0807C103.916 94.7264 104.601 94.1436 105.081 93.4043C105.56 92.665 105.812 91.8016 105.805 90.9207C105.842 90.3411 105.759 89.7602 105.562 89.2139C105.365 88.6676 105.059 88.1673 104.661 87.7441C104.264 87.3208 103.783 86.9835 103.251 86.7529C102.718 86.5223 102.143 86.4033 101.562 86.4033C100.982 86.4033 100.407 86.5223 99.8741 86.7529C99.3411 86.9835 98.861 87.3208 98.4635 87.7441C98.0659 88.1673 97.7592 88.6676 97.5624 89.2139C97.3656 89.7602 97.2828 90.3411 97.3191 90.9207C97.3011 91.8126 97.5485 92.6898 98.0299 93.4408C98.5113 94.1919 99.2051 94.7829 100.023 95.1389C93.4919 96.129 93.7914 103.226 93.7914 103.226L109.233 103.293C109.233 103.293 109.583 96.0624 103.11 95.0807Z" fill="#F05522"/>
<path d="M309.054 84.6261C314.097 63.7165 301.235 42.6776 280.325 37.6344C259.416 32.5913 238.377 45.4537 233.334 66.3633C228.29 87.273 241.153 108.312 262.062 113.355C282.972 118.398 304.011 105.536 309.054 84.6261Z" fill="white"/>
<path d="M310.75 75C310.75 96.398 293.18 113.75 271.5 113.75C249.82 113.75 232.25 96.398 232.25 75C232.25 53.602 249.82 36.25 271.5 36.25C293.18 36.25 310.75 53.602 310.75 75Z" stroke="#263238" strokeWidth="0.5"/>
<path d="M285.675 324.714C285.26 332.579 287.24 340.385 291.352 347.102C295.465 353.82 301.518 359.132 308.712 362.339C315.906 365.545 323.903 366.495 331.648 365.063C339.393 363.631 346.522 359.884 352.094 354.318C357.666 348.751 361.419 341.625 362.858 333.882C364.297 326.138 363.354 318.14 360.154 310.943C356.954 303.746 351.647 297.689 344.933 293.57C338.22 289.451 330.415 287.465 322.55 287.873C312.938 288.373 303.852 292.414 297.043 299.217C290.234 306.02 286.185 315.102 285.675 324.714Z" fill="white"/>
<path d="M363.75 327C363.75 348.398 346.18 365.75 324.5 365.75C302.82 365.75 285.25 348.398 285.25 327C285.25 305.602 302.82 288.25 324.5 288.25C346.18 288.25 363.75 305.602 363.75 327Z" stroke="#263238" strokeWidth="0.5"/>
<path d="M316.701 313.665C317.856 312.969 319.098 312.429 320.395 312.059L321.16 308.398L327.342 308.29L328.232 311.918C329.543 312.243 330.805 312.741 331.985 313.399L335.113 311.352L339.556 315.645L337.626 318.84C338.323 319.994 338.863 321.236 339.231 322.534L342.884 323.299L343 329.481L339.365 330.371C339.044 331.682 338.549 332.945 337.892 334.124L339.939 337.252L335.646 341.695L332.451 339.756C331.294 340.457 330.049 340.999 328.748 341.37L327.991 345.023L321.809 345.131L320.919 341.503C319.607 341.185 318.345 340.689 317.167 340.031L314.038 342.078L309.587 337.793L311.526 334.598C310.828 333.441 310.288 332.196 309.92 330.895L306.259 330.138L306.151 323.957L309.787 323.066C310.106 321.755 310.601 320.492 311.26 319.314L309.213 316.186L313.506 311.735L316.701 313.673V313.665ZM320.029 321.902C319.111 322.847 318.494 324.044 318.257 325.341C318.021 326.637 318.174 327.975 318.698 329.185C319.222 330.394 320.094 331.42 321.202 332.134C322.31 332.847 323.605 333.216 324.923 333.192C326.241 333.169 327.522 332.755 328.604 332.003C329.686 331.25 330.521 330.193 331.002 328.966C331.483 327.739 331.589 326.397 331.306 325.11C331.023 323.822 330.365 322.648 329.414 321.735C328.783 321.129 328.039 320.653 327.224 320.334C326.409 320.015 325.54 319.86 324.665 319.878C323.79 319.896 322.928 320.086 322.126 320.437C321.325 320.789 320.601 321.295 319.996 321.927L320.029 321.902Z" fill="#F05522"/>
<path d="M111.813 360.706C111.403 368.571 113.387 376.375 117.503 383.089C121.62 389.803 127.675 395.112 134.87 398.314C142.065 401.516 150.062 402.462 157.806 401.026C165.549 399.591 172.676 395.841 178.245 390.272C183.814 384.703 187.563 377.577 188.999 369.833C190.435 362.089 189.489 354.093 186.287 346.897C183.085 339.702 177.776 333.647 171.062 329.531C164.348 325.414 156.543 323.43 148.678 323.84C139.064 324.343 129.977 328.388 123.169 335.196C116.361 342.004 112.316 351.091 111.813 360.706Z" fill="white"/>
<path d="M153.363 379.309V384.118H148.163V379.484C143.836 379.184 139.718 377.928 137.214 376.197L140.026 369.874C143.013 371.774 146.47 372.808 150.01 372.861C153.562 372.861 154.952 371.863 154.952 370.365C154.952 365.564 137.713 369.067 137.713 357.81C137.713 353.043 141.132 349.016 148.146 348.151V343.392H153.346V348.067C156.429 348.263 159.432 349.135 162.14 350.622L159.495 356.986C156.928 355.528 154.042 354.725 151.091 354.649C147.497 354.649 146.199 355.863 146.199 357.378C146.199 362.012 163.388 358.542 163.388 369.716C163.405 374.334 160.119 378.319 153.363 379.309Z" fill="#F05522"/>
<path d="M94.6284 239.877C103.387 220.232 94.5623 197.206 74.9172 188.447C55.2721 179.688 32.2462 188.513 23.4873 208.158C14.7284 227.803 23.5534 250.829 43.1985 259.588C62.8436 268.347 85.8695 259.522 94.6284 239.877Z" fill="white"/>
<path d="M97.75 224C97.75 245.398 80.1802 262.75 58.5 262.75C36.8198 262.75 19.25 245.398 19.25 224C19.25 202.602 36.8198 185.25 58.5 185.25C80.1802 185.25 97.75 202.602 97.75 224Z" stroke="#263238" strokeWidth="0.5"/>
<path d="M42.6485 218.051H45.8215V224.579C45.8215 226.263 46.4901 227.877 47.6803 229.067C48.8704 230.257 50.4846 230.926 52.1677 230.926H52.2788L63.6067 239.279H51.311L54.3492 247.449L43.2989 239.279H42.6326C41.4053 239.279 40.2281 238.792 39.3596 237.925C38.491 237.058 38.002 235.881 37.9999 234.654V222.676C38.0009 222.067 38.122 221.464 38.3563 220.901C38.5906 220.339 38.9334 219.829 39.3652 219.399C39.797 218.97 40.3092 218.63 40.8725 218.398C41.4359 218.167 42.0394 218.049 42.6485 218.051Z" fill="#F15A22"/>
<path d="M52.1755 208H75.5849C76.8115 208 77.9878 208.487 78.8552 209.355C79.7225 210.222 80.2097 211.398 80.2097 212.625V224.603C80.2097 225.831 79.7227 227.008 78.8556 227.876C77.9886 228.745 76.8122 229.234 75.5849 229.236H60.838L63.8763 237.351L52.8181 229.212H52.1517C50.9237 229.21 49.7466 228.721 48.8782 227.853C48.0099 226.985 47.5211 225.807 47.519 224.579V212.601C47.5274 211.374 48.0225 210.2 48.8955 209.337C49.7685 208.475 50.9482 207.994 52.1755 208Z" fill="#F15A22"/>
<path d="M70.2942 219.947C69.3786 219.947 68.6363 219.204 68.6363 218.289C68.6363 217.373 69.3786 216.631 70.2942 216.631C71.2099 216.631 71.9521 217.373 71.9521 218.289C71.9521 219.204 71.2099 219.947 70.2942 219.947Z" fill="white"/>
<path d="M61.8853 218.312C61.8853 218.64 61.9825 218.961 62.1647 219.233C62.3469 219.506 62.6058 219.718 62.9088 219.844C63.2117 219.969 63.5451 220.002 63.8667 219.938C64.1883 219.874 64.4837 219.716 64.7156 219.485C64.9474 219.253 65.1053 218.957 65.1693 218.636C65.2333 218.314 65.2005 217.981 65.075 217.678C64.9495 217.375 64.737 217.116 64.4643 216.934C64.1917 216.752 63.8711 216.654 63.5432 216.654C63.1042 216.656 62.6837 216.832 62.3732 217.142C62.0627 217.453 61.8874 217.873 61.8853 218.312Z" fill="white"/>
<path d="M55.1424 218.312C55.1424 218.64 55.2398 218.961 55.4223 219.234C55.6049 219.507 55.8643 219.719 56.1677 219.845C56.4711 219.97 56.8049 220.002 57.1267 219.938C57.4485 219.873 57.7439 219.714 57.9755 219.482C58.207 219.249 58.3643 218.953 58.4274 218.631C58.4904 218.309 58.4565 217.975 58.3298 217.672C58.2031 217.369 57.9893 217.111 57.7156 216.93C57.4419 216.749 57.1206 216.653 56.7924 216.654C56.354 216.656 55.9344 216.832 55.6252 217.143C55.316 217.453 55.1424 217.874 55.1424 218.312Z" fill="white"/>
<g clip-path="url(#clip0_58_808)">
<path d="M283.144 60.8389H259.185C257.784 60.8389 254.888 63.9188 254.919 65.7221V70.3975V77.151V88.7877C254.919 91.0208 257.784 93.8787 259.185 93.8787H283.144C284.544 93.8787 287.41 91.0208 287.41 88.7877V77.7744V71.3326V67.904V65.7396C287.602 63.1421 284.544 60.8389 283.144 60.8389Z" fill="#F05522"/>
<path d="M261.083 61.689V53.8358C261.083 53.1527 261.769 53.0049 262.453 53.0049H263.542C263.731 53.0049 263.885 53.3769 263.885 53.8358V61.689C263.885 62.1479 263.731 62.52 263.542 62.52H261.426C261.237 62.52 261.083 62.1479 261.083 61.689Z" fill="#F05522"/>
<path d="M263.308 53H279.032C279.951 53 280.696 53.1841 280.696 53.4112V55.9488C280.696 56.1759 279.951 56.36 279.032 56.36H263.308C262.389 56.36 261.644 56.1759 261.644 55.9488V53.4112C261.644 53.1841 262.389 53 263.308 53Z" fill="#F05522"/>
<path d="M281.256 61.689V53.8358C281.256 53.1527 280.569 53.0049 279.886 53.0049H278.797C278.608 53.0049 278.454 53.3769 278.454 53.8358V61.689C278.454 62.1479 278.608 62.52 278.797 62.52H280.913C281.102 62.52 281.256 62.1479 281.256 61.689Z" fill="#F05522"/>
<path d="M272.556 59.1562H269.781C269.619 59.1562 269.487 59.279 269.487 59.4304V61.1221C269.487 61.2735 269.619 61.3962 269.781 61.3962H272.556C272.718 61.3962 272.849 61.2735 272.849 61.1221V59.4304C272.849 59.279 272.718 59.1562 272.556 59.1562Z" fill="#F05522"/>
<path d="M280.42 93.3223H261.921C260.84 93.3223 259.964 93.5371 259.964 93.802V96.7626C259.964 97.0275 260.84 97.2423 261.921 97.2423H280.42C281.501 97.2423 282.378 97.0275 282.378 96.7626V93.802C282.378 93.5371 281.501 93.3223 280.42 93.3223Z" fill="#F05522"/>
<path d="M268.928 94.4414H262.204C261.894 94.4414 261.644 94.6921 261.644 95.0014C261.644 95.3107 261.894 95.5614 262.204 95.5614H268.928C269.237 95.5614 269.488 95.3107 269.488 95.0014C269.488 94.6921 269.237 94.4414 268.928 94.4414Z" fill="#F5F5F5"/>
<path d="M280.135 94.4414H273.411C273.101 94.4414 272.85 94.6921 272.85 95.0014C272.85 95.3107 273.101 95.5614 273.411 95.5614H280.135C280.444 95.5614 280.695 95.3107 280.695 95.0014C280.695 94.6921 280.444 94.4414 280.135 94.4414Z" fill="#F5F5F5"/>
<path d="M285.243 75.041H256.757C255.234 75.041 254 76.2745 254 77.7961C254 79.3177 255.234 80.5512 256.757 80.5512H285.243C286.766 80.5512 288 79.3177 288 77.7961C288 76.2745 286.766 75.041 285.243 75.041Z" fill="#A83C18"/>
</g>
<path d="M189.75 363C189.75 384.398 172.18 401.75 150.5 401.75C128.82 401.75 111.25 384.398 111.25 363C111.25 341.602 128.82 324.25 150.5 324.25C172.18 324.25 189.75 341.602 189.75 363Z" stroke="#263238" strokeWidth="0.5"/>
<defs>
<clipPath id="clip0_58_808">
<rect width="34" height="45" fill="white" transform="translate(254 53)"/>
</clipPath>
</defs>
</svg>
